<?xml version="1.0" standalone="no"?>
<!DOCTYPE svg PUBLIC "-//W3C//DTD SVG 20010904//EN"
 "http://www.w3.org/TR/2001/REC-SVG-20010904/DTD/svg10.dtd">
<svg version="1.0" xmlns="http://www.w3.org/2000/svg"
 width="1280.000000pt" height="1244.000000pt" viewBox="0 0 1280.000000 1244.000000"
 preserveAspectRatio="xMidYMid meet">
<g transform="translate(0.000000,1244.000000) scale(0.100000,-0.100000)"
fill="#000000" stroke="none">
<path d="M5950 11539 c-1678 -90 -3237 -920 -4223 -2247 -451 -608 -762 -1297
-921 -2042 -124 -578 -142 -1257 -50 -1849 270 -1748 1415 -3256 3059 -4029
849 -399 1794 -589 2708 -543 1096 54 2071 372 2957 964 1048 701 1836 1770
2174 2953 142 497 200 916 200 1439 0 523 -58 942 -200 1439 -400 1400 -1400
2597 -2747 3291 -901 465 -1921 680 -2957 624z"/>
</g>
</svg>
